<svg width="800" height="180" viewBox="0 0 800 180" xmlns="http://www.w3.org/2000/svg">
  <defs>
    <style>
      @import url('https://fonts.googleapis.com/css2?family=Space+Mono:wght@400;700&amp;family=Syne:wght@700;800&amp;display=swap');
    </style>
    <pattern id="scanlines3" x="0" y="0" width="800" height="4" patternUnits="userSpaceOnUse">
      <rect x="0" y="0" width="800" height="1" fill="#00ff8c" fill-opacity="0.008"/>
    </pattern>
    <radialGradient id="glow3" cx="50%" cy="50%" r="65%" gradientUnits="userSpaceOnUse" fx="400" fy="90">
      <stop offset="0%" stop-color="#00ff8c" stop-opacity="0.04"/>
      <stop offset="100%" stop-color="#00ff8c" stop-opacity="0"/>
    </radialGradient>
  </defs>

  <rect width="800" height="180" fill="#080d14"/>
  <rect width="800" height="180" fill="url(#glow3)"/>
  <rect width="800" height="180" fill="url(#scanlines3)"/>

  <polygon points="0,0 793,0 800,7 800,179.5 7,179.5 0,173" fill="none" stroke="#00ff8c" stroke-opacity="0.12" stroke-width="1"/>

  <!-- Section label -->
  <text x="40" y="38" font-size="10" letter-spacing="4" fill="#2d4050" font-family="'Space Mono','Courier New',monospace" font-weight="700">CONTACT</text>
  <line x1="104" y1="32" x2="760" y2="32" stroke="#2d4050" stroke-opacity="0.4" stroke-width="0.5"/>

  <!-- Contact entries -->
  <!-- GitHub -->
  <text x="40" y="76" font-size="10" letter-spacing="2" fill="#2d4050" font-family="'Space Mono','Courier New',monospace">GITHUB</text>
  <text x="130" y="76" font-size="12" fill="#4a6070" font-family="'Space Mono','Courier New',monospace">github.com/emmi-dev12</text>
  <line x1="40" y1="82" x2="380" y2="82" stroke="#00ff8c" stroke-opacity="0.06" stroke-width="0.5"/>

  <!-- PGP -->
  <text x="40" y="106" font-size="10" letter-spacing="2" fill="#2d4050" font-family="'Space Mono','Courier New',monospace">PGP</text>
  <text x="130" y="106" font-size="12" fill="#4a6070" font-family="'Space Mono','Courier New',monospace">keys.openpgp.org · 0xF3A92C8D</text>
  <line x1="40" y1="112" x2="440" y2="112" stroke="#00ff8c" stroke-opacity="0.06" stroke-width="0.5"/>

  <!-- Corner accents -->
  <polyline points="40,20 20,20 20,40" fill="none" stroke="#00ff8c" stroke-opacity="0.5" stroke-width="1.5"/>
  <polyline points="760,20 780,20 780,40" fill="none" stroke="#00ff8c" stroke-opacity="0.5" stroke-width="1.5"/>
  <polyline points="20,140 20,160 40,160" fill="none" stroke="#00ff8c" stroke-opacity="0.5" stroke-width="1.5"/>
  <polyline points="780,140 780,160 760,160" fill="none" stroke="#00ff8c" stroke-opacity="0.5" stroke-width="1.5"/>

  <!-- Footer encryption note -->
  <text x="400" y="165" font-size="8.5" fill="#2d4050" font-family="'Space Mono','Courier New',monospace" text-anchor="middle" letter-spacing="1.5">AES-256-GCM · PBKDF2 600K · ZERO SERVER KNOWLEDGE</text>
</svg>
