<svg width="800" height="380" viewBox="0 0 800 380" xmlns="http://www.w3.org/2000/svg">
  <defs>
    <style>
      @import url('https://fonts.googleapis.com/css2?family=Space+Mono:wght@400;700&amp;family=Syne:wght@700;800&amp;display=swap');
    </style>
    <pattern id="scanlines2" x="0" y="0" width="800" height="4" patternUnits="userSpaceOnUse">
      <rect x="0" y="0" width="800" height="1" fill="#00ff8c" fill-opacity="0.008"/>
    </pattern>
    <radialGradient id="glow2" cx="50%" cy="50%" r="65%" gradientUnits="userSpaceOnUse" fx="400" fy="190">
      <stop offset="0%" stop-color="#00ff8c" stop-opacity="0.04"/>
      <stop offset="100%" stop-color="#00ff8c" stop-opacity="0"/>
    </radialGradient>
  </defs>

  <!-- Base -->
  <rect width="800" height="380" fill="#080d14"/>
  <rect width="800" height="380" fill="url(#glow2)"/>
  <rect width="800" height="380" fill="url(#scanlines2)"/>

  <!-- Outer border -->
  <polygon points="0,0 793,0 800,7 800,379.5 7,379.5 0,373" fill="none" stroke="#00ff8c" stroke-opacity="0.12" stroke-width="1"/>

  <!-- Section label -->
  <text x="40" y="38" font-size="10" letter-spacing="4" fill="#2d4050" font-family="'Space Mono','Courier New',monospace" font-weight="700">FEATURED PROJECTS</text>
  <line x1="188" y1="32" x2="760" y2="32" stroke="#2d4050" stroke-opacity="0.4" stroke-width="0.5"/>

  <!-- ── PROJECT 1 ── -->
  <!-- Card bg -->
  <polygon points="40,56 745,56 752,63 752,158 47,158 40,151" fill="#00ff8c" fill-opacity="0.02"/>
  <polygon points="40,56 745,56 752,63 752,158 47,158 40,151" fill="none" stroke="#00ff8c" stroke-opacity="0.1" stroke-width="1"/>

  <text x="56" y="82" font-size="13" fill="#00ff8c" font-family="'Space Mono','Courier New',monospace">◈</text>
  <text x="76" y="82" font-size="14" letter-spacing="1.5" fill="#c8d4e0" font-family="'Syne','Arial',sans-serif" font-weight="800">VAULTCORE</text>
  <rect x="178" y="70" width="56" height="16" rx="1" fill="#00ff8c" fill-opacity="0.08" stroke="#00ff8c" stroke-opacity="0.2" stroke-width="0.5"/>
  <text x="188" y="82" font-size="9" fill="#00ff8c" font-family="'Space Mono','Courier New',monospace">RUST</text>

  <text x="56" y="104" font-size="11.5" fill="#4a6070" font-family="'Space Mono','Courier New',monospace">Zero-knowledge secret store. AES-256-GCM encryption at rest,</text>
  <text x="56" y="121" font-size="11.5" fill="#4a6070" font-family="'Space Mono','Courier New',monospace">Argon2id KDF, memory-safe vault with hardware attestation.</text>

  <text x="56" y="146" font-size="9" fill="#2d4050" font-family="'Space Mono','Courier New',monospace">★ 847</text>
  <text x="100" y="146" font-size="9" fill="#2d4050" font-family="'Space Mono','Courier New',monospace">·  ⑂ 112</text>
  <text x="152" y="146" font-size="9" fill="#2d4050" font-family="'Space Mono','Courier New',monospace">·  last commit 3d ago</text>

  <!-- ── PROJECT 2 ── -->
  <polygon points="40,172 745,172 752,179 752,274 47,274 40,267" fill="#00ff8c" fill-opacity="0.02"/>
  <polygon points="40,172 745,172 752,179 752,274 47,274 40,267" fill="none" stroke="#00ff8c" stroke-opacity="0.1" stroke-width="1"/>

  <text x="56" y="198" font-size="13" fill="#00ff8c" font-family="'Space Mono','Courier New',monospace">◈</text>
  <text x="76" y="198" font-size="14" letter-spacing="1.5" fill="#c8d4e0" font-family="'Syne','Arial',sans-serif" font-weight="800">NULLROUTE</text>
  <rect x="192" y="186" width="56" height="16" rx="1" fill="#00ff8c" fill-opacity="0.08" stroke="#00ff8c" stroke-opacity="0.2" stroke-width="0.5"/>
  <text x="202" y="198" font-size="9" fill="#00ff8c" font-family="'Space Mono','Courier New',monospace">GO</text>

  <text x="56" y="220" font-size="11.5" fill="#4a6070" font-family="'Space Mono','Courier New',monospace">Anonymising reverse proxy. Strips metadata, rewrites headers,</text>
  <text x="56" y="237" font-size="11.5" fill="#4a6070" font-family="'Space Mono','Courier New',monospace">enforces TLS 1.3-only. No logs. No exceptions.</text>

  <text x="56" y="262" font-size="9" fill="#2d4050" font-family="'Space Mono','Courier New',monospace">★ 2.1k</text>
  <text x="104" y="262" font-size="9" fill="#2d4050" font-family="'Space Mono','Courier New',monospace">·  ⑂ 334</text>
  <text x="158" y="262" font-size="9" fill="#2d4050" font-family="'Space Mono','Courier New',monospace">·  last commit 1d ago</text>

  <!-- ── PROJECT 3 ── -->
  <polygon points="40,288 745,288 752,295 752,358 47,358 40,351" fill="#00ff8c" fill-opacity="0.02"/>
  <polygon points="40,288 745,288 752,295 752,358 47,358 40,351" fill="none" stroke="#00ff8c" stroke-opacity="0.1" stroke-width="1"/>

  <text x="56" y="314" font-size="13" fill="#00ff8c" font-family="'Space Mono','Courier New',monospace">◈</text>
  <text x="76" y="314" font-size="14" letter-spacing="1.5" fill="#c8d4e0" font-family="'Syne','Arial',sans-serif" font-weight="800">SIGCHAIN</text>
  <rect x="178" y="302" width="100" height="16" rx="1" fill="#00ff8c" fill-opacity="0.08" stroke="#00ff8c" stroke-opacity="0.2" stroke-width="0.5"/>
  <text x="188" y="314" font-size="9" fill="#00ff8c" font-family="'Space Mono','Courier New',monospace">TYPESCRIPT</text>

  <text x="56" y="336" font-size="11.5" fill="#4a6070" font-family="'Space Mono','Courier New',monospace">Ed25519 signature chain for tamper-evident audit logs.</text>

  <text x="56" y="354" font-size="9" fill="#2d4050" font-family="'Space Mono','Courier New',monospace">★ 419</text>
  <text x="96" y="354" font-size="9" fill="#2d4050" font-family="'Space Mono','Courier New',monospace">·  ⑂ 58</text>
  <text x="140" y="354" font-size="9" fill="#2d4050" font-family="'Space Mono','Courier New',monospace">·  last commit 12d ago</text>
</svg>
